<?xml version="1.0" encoding="UTF-8"?>
<svg width="73px" height="83px" viewBox="0 0 73 83" version="1.1" xmlns="http://www.w3.org/2000/svg" xmlns:xlink="http://www.w3.org/1999/xlink">
    <!-- Generator: Sketch 52.6 (67491) - http://www.bohemiancoding.com/sketch -->
    <title>Icon/LandingPage/Icon-C</title>
    <desc>Created with Sketch.</desc>
    <defs>
        <polygon id="path-1" points="0 83 72.028 83 72.028 0.351 0 0.351"></polygon>
    </defs>
    <g id="Landing-Page---FINAL" stroke="none" stroke-width="1" fill="none" fill-rule="evenodd">
        <g id="Landing-Page---Desktop---Wide" transform="translate(-1365.000000, -1901.000000)">
            <g id="Section/ABC" transform="translate(533.000000, 1796.000000)">
                <g id="Icon/LandingPage/Icon-C" transform="translate(832.000000, 104.000000)">
                    <g id="Group-18">
                        <polygon id="Fill-1" fill="#AD1212" points="0 68.2768 15.378 83.6488 23.24 75.7938 17.273 69.8258 8.869 61.4218 7.861 60.4148"></polygon>
                        <g id="Group-17" transform="translate(0.000000, 0.648800)">
                            <path d="M61.3578,42.5052 C60.4788,41.6262 59.3258,41.1832 58.1718,41.1832 C57.0188,41.1832 55.8588,41.6262 54.9798,42.5052 L44.4578,53.0272 C44.4448,53.3262 44.4098,53.6172 44.3368,53.9062 C43.8428,55.9782 41.9468,57.4312 39.7298,57.4312 L26.9988,57.4242 L26.9988,56.1782 L39.7298,56.1842 C41.3678,56.1842 42.7638,55.1242 43.1258,53.6082 C43.1908,53.3522 43.2218,53.1072 43.2218,52.8482 C43.2218,51.9682 42.8618,51.1352 42.2078,50.5042 C41.5468,49.8692 40.6658,49.5192 39.7298,49.5192 L20.8078,49.7152 L9.3098,61.2132 L17.2728,69.1772 L19.9978,66.4582 L43.7948,66.4582 L61.3578,48.8892 C63.1228,47.1252 63.1228,44.2702 61.3578,42.5052" id="Fill-2" fill="#EF4035"></path>
                            <mask id="mask-2" fill="white">
                                <use xlink:href="#path-1"></use>
                            </mask>
                            <g id="Clip-5"></g>
                            <polygon id="Fill-4" fill="#AD1212" mask="url(#mask-2)" points="6.595 37.091 72.028 37.091 72.028 32.656 6.595 32.656"></polygon>
                            <polygon id="Fill-6" fill="#EF4035" mask="url(#mask-2)" points="6.595 34.739 72.028 34.739 72.028 30.303 6.595 30.303"></polygon>
                            <path d="M42.9701,18.8978 C42.9701,18.4508 42.8821,18.0628 42.7111,17.7448 C42.5401,17.4208 42.3351,17.1508 42.0881,16.9388 C41.8461,16.7218 41.5941,16.5568 41.3291,16.4328 C41.0641,16.3098 40.8351,16.2278 40.6411,16.1798 L39.7641,15.9448 L39.7641,12.3448 C40.6581,12.5098 41.2051,13.0738 41.4001,14.0388 L42.6471,14.0388 C42.4521,13.1868 42.1171,12.5098 41.6521,12.0218 C41.1821,11.5338 40.5521,11.2448 39.7641,11.1448 L39.7641,10.1628 L38.9581,10.1628 L38.9581,11.1328 C38.5411,11.1628 38.1471,11.2508 37.7821,11.4098 C37.4171,11.5628 37.0991,11.7738 36.8291,12.0448 C36.5641,12.3148 36.3531,12.6268 36.1941,12.9978 C36.0351,13.3628 35.9581,13.7628 35.9581,14.2038 C35.9581,14.6328 36.0171,14.9978 36.1351,15.2978 C36.2531,15.6038 36.4351,15.8558 36.6821,16.0688 C36.9351,16.2798 37.2461,16.4568 37.6231,16.6098 C37.9941,16.7628 38.4411,16.8978 38.9581,17.0268 L38.9581,20.9038 C38.3761,20.8038 37.8871,20.5678 37.5061,20.1858 C37.1171,19.8038 36.9171,19.2858 36.8941,18.6328 L35.6521,18.6328 C35.7291,19.6568 36.0581,20.4618 36.6351,21.0388 C37.2111,21.6218 37.9821,21.9618 38.9581,22.0568 L38.9581,23.2558 L39.7641,23.2558 L39.7641,22.0568 C40.2291,22.0208 40.6581,21.9208 41.0531,21.7688 C41.4401,21.6088 41.7761,21.3978 42.0581,21.1268 C42.3411,20.8628 42.5641,20.5448 42.7291,20.1688 C42.8871,19.7978 42.9701,19.3738 42.9701,18.8978 Z M47.1641,12.2628 C47.9111,13.5738 48.3351,15.0918 48.3351,16.7098 C48.3351,18.3268 47.9111,19.8448 47.1641,21.1568 L47.1581,21.1568 C45.6111,23.8918 42.6761,25.7328 39.3111,25.7328 C35.9471,25.7328 33.0121,23.8918 31.4641,21.1568 L31.4581,21.1568 C30.7121,19.8448 30.2881,18.3268 30.2881,16.7098 C30.2881,15.0918 30.7121,13.5738 31.4581,12.2628 L31.4641,12.2628 C33.0121,9.5268 35.9471,7.6868 39.3111,7.6868 C42.6761,7.6868 45.6111,9.5268 47.1581,12.2628 L47.1641,12.2628 Z" id="Fill-7" fill="#FFFFFF" mask="url(#mask-2)"></path>
                            <path d="M68.0106,24.8563 L68.0106,8.5633 C65.6926,8.5633 63.8166,6.6863 63.8166,4.3683 L55.1986,4.3683 L14.8056,4.3683 C14.8056,6.6863 12.9296,8.5633 10.6126,8.5633 L10.6126,24.8563 C12.9296,24.8563 14.8056,26.7323 14.8056,29.0503 L29.7296,29.0503 L63.8166,29.0503 C63.8166,26.7323 65.6926,24.8563 68.0106,24.8563 Z M6.5946,33.0683 L72.0276,33.0683 L72.0276,0.3513 L6.5946,0.3513 L6.5946,33.0683 Z" id="Fill-8" fill="#AD1212" mask="url(#mask-2)"></path>
                            <path d="M68.0106,8.5629 L68.0106,24.8559 C65.6926,24.8559 63.8166,26.7329 63.8166,29.0499 L29.7296,29.0499 L14.8056,29.0499 C14.8056,26.7329 12.9296,24.8559 10.6126,24.8559 L10.6126,8.5629 C12.9296,8.5629 14.8056,6.6869 14.8056,4.3689 L55.1986,4.3689 L63.8166,4.3689 C63.8166,6.6869 65.6926,8.5629 68.0106,8.5629 Z M47.1636,21.1569 C47.9106,19.8449 48.3346,18.3269 48.3346,16.7089 C48.3346,15.0919 47.9106,13.5739 47.1636,12.2629 L47.1576,12.2629 C45.6116,9.5269 42.6766,7.6869 39.3116,7.6869 C35.9466,7.6869 33.0116,9.5269 31.4646,12.2629 L31.4586,12.2629 C30.7116,13.5739 30.2876,15.0919 30.2876,16.7089 C30.2876,18.3269 30.7116,19.8449 31.4586,21.1569 L31.4646,21.1569 C33.0116,23.8919 35.9466,25.7329 39.3116,25.7329 C42.6766,25.7329 45.6116,23.8919 47.1576,21.1569 L47.1636,21.1569 Z" id="Fill-9" fill="#EF4035" mask="url(#mask-2)"></path>
                            <path d="M42.7289,20.1683 C42.5639,20.5443 42.3409,20.8623 42.0589,21.1273 C41.7759,21.3973 41.4399,21.6093 41.0529,21.7683 C40.6589,21.9213 40.2289,22.0213 39.7639,22.0563 L39.7639,23.2563 L38.9579,23.2563 L38.9579,22.0563 C37.9819,21.9623 37.2109,21.6213 36.6349,21.0393 C36.0589,20.4623 35.7289,19.6563 35.6519,18.6333 L36.8939,18.6333 C36.9169,19.2863 37.1169,19.8033 37.5059,20.1863 C37.8879,20.5683 38.3759,20.8033 38.9579,20.9033 L38.9579,17.0273 C38.4409,16.8973 37.9939,16.7623 37.6239,16.6093 C37.2469,16.4563 36.9349,16.2803 36.6819,16.0683 C36.4349,15.8563 36.2529,15.6043 36.1349,15.2973 C36.0169,14.9983 35.9579,14.6333 35.9579,14.2043 C35.9579,13.7623 36.0349,13.3623 36.1939,12.9983 C36.3529,12.6273 36.5639,12.3153 36.8289,12.0443 C37.0999,11.7743 37.4169,11.5633 37.7819,11.4103 C38.1469,11.2513 38.5409,11.1623 38.9579,11.1333 L38.9579,10.1633 L39.7639,10.1633 L39.7639,11.1453 C40.5519,11.2453 41.1819,11.5333 41.6519,12.0213 C42.1169,12.5093 42.4529,13.1863 42.6469,14.0393 L41.3999,14.0393 C41.2059,13.0743 40.6589,12.5093 39.7639,12.3453 L39.7639,15.9453 L40.6409,16.1803 C40.8349,16.2273 41.0639,16.3093 41.3289,16.4333 C41.5939,16.5563 41.8469,16.7213 42.0879,16.9393 C42.3349,17.1503 42.5409,17.4213 42.7109,17.7453 C42.8819,18.0623 42.9699,18.4503 42.9699,18.8973 C42.9699,19.3743 42.8879,19.7973 42.7289,20.1683 M38.2879,15.4923 C38.4939,15.5803 38.7169,15.6563 38.9579,15.7213 L38.9579,12.2973 C38.4939,12.3513 38.0939,12.5153 37.7639,12.8033 C37.4409,13.0923 37.2759,13.5153 37.2759,14.0683 C37.2759,14.3273 37.3169,14.5393 37.3999,14.7213 C37.4819,14.9033 37.5999,15.0513 37.7519,15.1743 C37.9049,15.2973 38.0819,15.4033 38.2879,15.4923 M41.6519,19.0273 C41.6519,18.7453 41.5999,18.5093 41.5049,18.3213 C41.4049,18.1333 41.2759,17.9683 41.1109,17.8333 C40.9409,17.6913 40.7469,17.5803 40.5119,17.4853 C40.2759,17.3923 40.0289,17.3093 39.7639,17.2333 L39.7639,20.9033 C40.0349,20.8863 40.2879,20.8333 40.5179,20.7563 C40.7469,20.6803 40.9459,20.5623 41.1169,20.4153 C41.2879,20.2623 41.4169,20.0683 41.5109,19.8443 C41.6049,19.6153 41.6519,19.3443 41.6519,19.0273" id="Fill-10" fill="#EF4035" mask="url(#mask-2)"></path>
                            <polygon id="Fill-11" fill="#EFEFEF" mask="url(#mask-2)" points="46.651 17.592 62.681 17.592 62.681 15.827 46.651 15.827"></polygon>
                            <polygon id="Fill-12" fill="#EFEFEF" mask="url(#mask-2)" points="15.941 17.592 31.458 17.592 31.458 15.827 15.941 15.827"></polygon>
                            <polygon id="Fill-13" fill="#EFEFEF" mask="url(#mask-2)" points="45.867 22.039 55.67 22.039 55.67 20.274 45.867 20.274"></polygon>
                            <polygon id="Fill-14" fill="#EFEFEF" mask="url(#mask-2)" points="22.953 22.039 32.828 22.039 32.828 20.274 22.953 20.274"></polygon>
                            <polygon id="Fill-15" fill="#EFEFEF" mask="url(#mask-2)" points="45.475 13.145 55.67 13.145 55.67 11.38 45.475 11.38"></polygon>
                            <polygon id="Fill-16" fill="#EFEFEF" mask="url(#mask-2)" points="22.953 13.145 33.416 13.145 33.416 11.38 22.953 11.38"></polygon>
                        </g>
                    </g>
                </g>
            </g>
        </g>
    </g>
</svg>