<?xml version="1.0" encoding="UTF-8"?>
<svg width="60px" height="84px" viewBox="0 0 60 84" version="1.1" xmlns="http://www.w3.org/2000/svg" xmlns:xlink="http://www.w3.org/1999/xlink">
    <!-- Generator: Sketch 52.6 (67491) - http://www.bohemiancoding.com/sketch -->
    <title>Icon/LandingPage/Icon-B</title>
    <desc>Created with Sketch.</desc>
    <defs>
        <polygon id="path-1" points="0.000545454545 0.877858065 9.51545455 0.877858065 9.51545455 18.6451613 0.000545454545 18.6451613"></polygon>
    </defs>
    <g id="Landing-Page---FINAL" stroke="none" stroke-width="1" fill="none" fill-rule="evenodd">
        <g id="Landing-Page---Desktop---Wide" transform="translate(-954.000000, -1894.000000)">
            <g id="Section/ABC" transform="translate(533.000000, 1796.000000)">
                <g id="Icon/LandingPage/Icon-B" transform="translate(421.000000, 98.000000)">
                    <g id="Group-15">
                        <polygon id="Fill-1" fill="#EFEFEF" points="7 0 7 80 60 80 60 14.0041366 48.0410088 0"></polygon>
                        <polygon id="Fill-2" fill="#333333" points="21 21 54 21 54 19 21 19"></polygon>
                        <polygon id="Fill-3" fill="#333333" points="21 32 54 32 54 30 21 30"></polygon>
                        <polygon id="Fill-4" fill="#333333" points="21 43 54 43 54 41 21 41"></polygon>
                        <polygon id="Fill-5" fill="#E0E0E0" points="48 0 48 15 60 15"></polygon>
                        <polygon id="Fill-6" fill="#EF4035" points="14 16.3549129 15.3127552 15 18.5005567 18.2901743 21.6872448 15 23 16.3549129 18.5005567 21"></polygon>
                        <polygon id="Fill-7" fill="#EF4035" points="14 27.3575804 15.3127552 26 18.5005567 29.2882848 21.6872448 26 23 27.3575804 18.5005567 32"></polygon>
                        <polygon id="Fill-8" fill="#EF4035" points="14 38.3549129 15.3127552 37 18.5005567 40.2890251 21.6872448 37 23 38.3549129 18.5005567 43"></polygon>
                        <g id="Group-14" transform="translate(0.000000, 50.000000)">
                            <g id="Group-11" transform="translate(0.000000, 15.354839)">
                                <mask id="mask-2" fill="white">
                                    <use xlink:href="#path-1"></use>
                                </mask>
                                <g id="Clip-10"></g>
                                <path d="M3.39872727,0.877858065 C1.52563636,0.877858065 0.000545454545,2.41114839 0.000545454545,4.29430968 L0.000545454545,15.2280516 C0.000545454545,17.1112129 1.52563636,18.6456 3.39872727,18.6456 L7.47654545,18.6456 C8.24236364,18.6456 8.946,18.3856645 9.51545455,17.9535355 L9.51545455,0.877858065 L3.39872727,0.877858065 Z" id="Fill-9" fill="#EF4035" mask="url(#mask-2)"></path>
                            </g>
                            <path d="M35.1,21.4418258 C35.1,20.5271161 34.7389091,19.6749226 34.1138182,19.0453742 C34.8218182,18.2677613 35.1818182,17.2258258 35.0825455,16.1400194 C34.9058182,14.2053097 33.1723636,12.6895677 31.1345455,12.6895677 L21.7821818,12.6895677 C22.2458182,11.274729 22.9876364,8.68305161 22.9876364,6.60027742 C22.9876364,3.2989871 20.1970909,0.512083871 18.4450909,0.512083871 C16.8730909,0.512083871 15.7494545,1.40266452 15.7003636,1.43885806 C15.5214545,1.58363226 15.4178182,1.8029871 15.4178182,2.03440645 L15.4178182,7.19582581 L11.0563636,16.6927935 L10.8752727,16.7860194 L10.8752727,33.1005355 C12.108,33.6851161 13.6669091,33.9998903 14.6607273,33.9998903 L28.5578182,33.9998903 C30.2061818,33.9998903 31.6494545,32.8822774 31.9887273,31.3402129 C32.1632727,30.5472452 32.0607273,29.7487935 31.7138182,29.0545355 C32.8330909,28.4886 33.5858182,27.3304065 33.5858182,26.0087935 C33.5858182,25.4691806 33.4636364,24.9536968 33.2301818,24.486471 C34.3494545,23.9205355 35.1,22.7623419 35.1,21.4418258" id="Fill-12" fill="#EF4035"></path>
                        </g>
                    </g>
                </g>
            </g>
        </g>
    </g>
</svg>