<svg xmlns="http://www.w3.org/2000/svg" width="12.117" height="12.117" viewBox="0 0 12.117 12.117"><path d="M9.434,3.375a6.059,6.059,0,1,0,6.059,6.059A6.058,6.058,0,0,0,9.434,3.375ZM9.308,12.23a.6.6,0,1,1,.626-.6A.608.608,0,0,1,9.308,12.23Zm1.171-2.822c-.507.294-.679.51-.679.883v.23H8.79l-.009-.25a1.213,1.213,0,0,1,.687-1.282c.492-.294.7-.481.7-.842a.707.707,0,0,0-.784-.626.737.737,0,0,0-.781.717H7.569a1.664,1.664,0,0,1,1.885-1.6c1.092,0,1.844.606,1.844,1.477A1.426,1.426,0,0,1,10.479,9.407Z" transform="translate(-3.375 -3.375)" fill="#c1c1c1"/></svg>