<svg xmlns="http://www.w3.org/2000/svg" width="23.396" height="23.402" viewBox="0 0 23.396 23.402"><path d="M15.639,27.341A11.7,11.7,0,0,1,7.518,7.214a.939.939,0,0,1,1.3,1.352,9.82,9.82,0,1,0,7.752-2.7V9.525a.942.942,0,1,1-1.884,0V4.879a.941.941,0,0,1,.942-.942,11.7,11.7,0,0,1,.006,23.4Z" transform="translate(-3.938 -3.938)" fill="#fff"/><path d="M12.181,11.361,18,15.545a1.762,1.762,0,0,1-2.048,2.867,1.7,1.7,0,0,1-.41-.41l-4.183-5.822a.587.587,0,0,1,.819-.819Z" transform="translate(-5.166 -5.166)" fill="#fff"/></svg>