<?xml version="1.0" encoding="UTF-8"?>
<svg width="107px" height="65px" viewBox="0 0 107 65" version="1.1" xmlns="http://www.w3.org/2000/svg" xmlns:xlink="http://www.w3.org/1999/xlink">
    <!-- Generator: Sketch 52.6 (67491) - http://www.bohemiancoding.com/sketch -->
    <title>Icon/LandingPage/Icon-A</title>
    <desc>Created with Sketch.</desc>
    <defs>
        <polygon id="path-1" points="0 64.9043 106.297 64.9043 106.297 0.0003 0 0.0003"></polygon>
    </defs>
    <g id="Landing-Page---FINAL" stroke="none" stroke-width="1" fill="none" fill-rule="evenodd">
        <g id="Landing-Page---Desktop---Wide" transform="translate(-533.000000, -1906.000000)">
            <g id="Section/ABC" transform="translate(533.000000, 1796.000000)">
                <g id="Icon/LandingPage/Icon-A" transform="translate(0.000000, 110.000000)">
                    <g id="Group-37">
                        <path d="M97.688,13.5235 C97.244,13.0705 96.653,12.8555 96.064,12.8555 L31.208,12.8555 C30.623,12.8555 30.033,13.0705 29.581,13.5235 C29.137,13.9715 28.913,14.5575 28.913,15.1545 L28.913,55.2305 L98.358,55.2305 L98.358,15.1545 C98.358,14.5575 98.14,13.9715 97.688,13.5235" id="Fill-1" fill="#333333"></path>
                        <mask id="mask-2" fill="white">
                            <use xlink:href="#path-1"></use>
                        </mask>
                        <g id="Clip-4"></g>
                        <polygon id="Fill-3" fill="#EFEFEF" mask="url(#mask-2)" points="32.527 55.2303 94.747 55.2303 94.747 16.3853 32.527 16.3853"></polygon>
                        <path d="M20.9727,56.5479 C24.2167,57.9849 27.8067,58.7709 31.5847,58.7709 L95.6847,58.7709 C99.4637,58.7709 103.0517,57.9849 106.2977,56.5479 L20.9727,56.5479 Z" id="Fill-5" fill="#E0E0E0" mask="url(#mask-2)"></path>
                        <polygon id="Fill-6" fill="#E0E0E0" mask="url(#mask-2)" points="20.972 56.5483 106.297 56.5483 106.297 55.2303 20.972 55.2303"></polygon>
                        <polygon id="Fill-7" fill="#E0E0E0" mask="url(#mask-2)" points="56.228 55.8873 71.041 55.8873 71.041 55.2303 56.228 55.2303"></polygon>
                        <polygon id="Fill-8" fill="#FFFFFF" mask="url(#mask-2)" points="41.547 55.2303 85.613 55.2303 85.613 16.3853 41.547 16.3853"></polygon>
                        <polygon id="Fill-9" fill="#333333" mask="url(#mask-2)" points="44.736 32.9003 53.933 32.9003 53.933 32.1933 44.736 32.1933"></polygon>
                        <polygon id="Fill-10" fill="#333333" mask="url(#mask-2)" points="44.736 40.3273 53.933 40.3273 53.933 39.6203 44.736 39.6203"></polygon>
                        <polygon id="Fill-11" fill="#333333" mask="url(#mask-2)" points="54.881 27.8473 71.474 27.8473 71.474 27.1403 54.881 27.1403"></polygon>
                        <polygon id="Fill-12" fill="#333333" mask="url(#mask-2)" points="57.787 29.5373 68.567 29.5373 68.567 28.8293 57.787 28.8293"></polygon>
                        <path d="M58.0591,22.6133 C58.0591,23.4883 57.3511,24.1963 56.4761,24.1963 C55.6021,24.1963 54.8931,23.4883 54.8931,22.6133 C54.8931,21.7393 55.6021,21.0303 56.4761,21.0303 C57.3511,21.0303 58.0591,21.7393 58.0591,22.6133" id="Fill-13" fill="#AD1212" mask="url(#mask-2)"></path>
                        <path d="M62.7178,22.6133 C62.7178,23.4883 62.0098,24.1963 61.1348,24.1963 C60.2608,24.1963 59.5518,23.4883 59.5518,22.6133 C59.5518,21.7393 60.2608,21.0303 61.1348,21.0303 C62.0098,21.0303 62.7178,21.7393 62.7178,22.6133" id="Fill-14" fill="#E0E0E0" mask="url(#mask-2)"></path>
                        <path d="M67.129,22.6133 C67.129,23.4883 66.421,24.1963 65.546,24.1963 C64.672,24.1963 63.963,23.4883 63.963,22.6133 C63.963,21.7393 64.672,21.0303 65.546,21.0303 C66.421,21.0303 67.129,21.7393 67.129,22.6133" id="Fill-15" fill="#E0E0E0" mask="url(#mask-2)"></path>
                        <path d="M71.4742,22.6133 C71.4742,23.4883 70.7662,24.1963 69.8912,24.1963 C69.0172,24.1963 68.3082,23.4883 68.3082,22.6133 C68.3082,21.7393 69.0172,21.0303 69.8912,21.0303 C70.7662,21.0303 71.4742,21.7393 71.4742,22.6133" id="Fill-16" fill="#E0E0E0" mask="url(#mask-2)"></path>
                        <polygon id="Fill-17" fill="#E0E0E0" mask="url(#mask-2)" points="44.714 36.6043 80.449 36.6043 80.449 34.0423 44.714 34.0423"></polygon>
                        <polygon id="Fill-18" fill="#E0E0E0" mask="url(#mask-2)" points="44.714 44.0433 80.449 44.0433 80.449 41.4813 44.714 41.4813"></polygon>
                        <path d="M69.3531,51.812 L55.8101,51.812 C54.9411,51.812 54.2371,51.107 54.2371,50.238 C54.2371,49.37 54.9411,48.665 55.8101,48.665 L69.3531,48.665 C70.2221,48.665 70.9271,49.37 70.9271,50.238 C70.9271,51.107 70.2221,51.812 69.3531,51.812" id="Fill-19" fill="#EF4035" mask="url(#mask-2)"></path>
                        <polygon id="Fill-20" fill="#FFFFFF" mask="url(#mask-2)" points="58.374 50.5923 67.571 50.5923 67.571 49.8843 58.374 49.8843"></polygon>
                        <path d="M34.4874,62.4707 C34.4874,63.8097 33.6464,64.9047 32.6124,64.9047 L1.8744,64.9047 C0.8434,64.9047 0.0004,63.8097 0.0004,62.4707 L0.0004,2.4317 C0.0004,1.0927 0.8434,-0.0003 1.8744,-0.0003 L32.6124,-0.0003 C33.6464,-0.0003 34.4874,1.0927 34.4874,2.4317 L34.4874,62.4707 Z" id="Fill-21" fill="#333333" mask="url(#mask-2)"></path>
                        <path d="M19.1451,2.7114 C19.6041,2.7114 19.9791,3.1954 19.9791,3.7934 L19.9791,4.0614 C19.9791,4.6584 19.6041,5.1454 19.1451,5.1454 L15.3411,5.1454 C14.8821,5.1454 14.5061,4.6584 14.5061,4.0614 L14.5061,3.7934 C14.5061,3.1954 14.8821,2.7114 15.3411,2.7114 L19.1451,2.7114 Z" id="Stroke-22" stroke="#FFFFFF" stroke-width="0.224" mask="url(#mask-2)"></path>
                        <polygon id="Fill-23" fill="#FFFFFF" mask="url(#mask-2)" points="1.959 58.5623 32.533 58.5623 32.533 7.8593 1.959 7.8593"></polygon>
                        <path d="M18.5054,61.5464 C18.5054,62.4754 17.7524,63.2284 16.8224,63.2284 C15.8944,63.2284 15.1404,62.4754 15.1404,61.5464 C15.1404,60.6174 15.8944,59.8634 16.8224,59.8634 C17.7524,59.8634 18.5054,60.6174 18.5054,61.5464 Z" id="Stroke-24" stroke="#FFFFFF" stroke-width="0.224" mask="url(#mask-2)"></path>
                        <polygon id="Fill-25" fill="#333333" mask="url(#mask-2)" points="3.645 28.2853 16.826 28.2853 16.826 27.2713 3.645 27.2713"></polygon>
                        <polygon id="Fill-26" fill="#333333" mask="url(#mask-2)" points="3.645 38.9293 16.826 38.9293 16.826 37.9163 3.645 37.9163"></polygon>
                        <polygon id="Fill-27" fill="#333333" mask="url(#mask-2)" points="5.352 21.0443 29.133 21.0443 29.133 20.0303 5.352 20.0303"></polygon>
                        <polygon id="Fill-28" fill="#333333" mask="url(#mask-2)" points="9.518 23.4663 24.967 23.4663 24.967 22.4533 9.518 22.4533"></polygon>
                        <path d="M9.9073,13.543 C9.9073,14.795 8.8913,15.811 7.6393,15.811 C6.3863,15.811 5.3703,14.795 5.3703,13.543 C5.3703,12.29 6.3863,11.274 7.6393,11.274 C8.8913,11.274 9.9073,12.29 9.9073,13.543" id="Fill-29" fill="#AD1212" mask="url(#mask-2)"></path>
                        <path d="M16.584,13.543 C16.584,14.795 15.568,15.811 14.315,15.811 C13.063,15.811 12.047,14.795 12.047,13.543 C12.047,12.29 13.063,11.274 14.315,11.274 C15.568,11.274 16.584,12.29 16.584,13.543" id="Fill-30" fill="#E0E0E0" mask="url(#mask-2)"></path>
                        <path d="M22.9058,13.543 C22.9058,14.795 21.8898,15.811 20.6368,15.811 C19.3848,15.811 18.3688,14.795 18.3688,13.543 C18.3688,12.29 19.3848,11.274 20.6368,11.274 C21.8898,11.274 22.9058,12.29 22.9058,13.543" id="Fill-31" fill="#E0E0E0" mask="url(#mask-2)"></path>
                        <path d="M29.1334,13.543 C29.1334,14.795 28.1174,15.811 26.8644,15.811 C25.6124,15.811 24.5964,14.795 24.5964,13.543 C24.5964,12.29 25.6124,11.274 26.8644,11.274 C28.1174,11.274 29.1334,12.29 29.1334,13.543" id="Fill-32" fill="#E0E0E0" mask="url(#mask-2)"></path>
                        <polygon id="Fill-33" fill="#E0E0E0" mask="url(#mask-2)" points="3.644 33.5933 29.133 33.5933 29.133 29.9223 3.644 29.9223"></polygon>
                        <polygon id="Fill-34" fill="#E0E0E0" mask="url(#mask-2)" points="3.644 44.2553 29.133 44.2553 29.133 40.5843 3.644 40.5843"></polygon>
                        <path d="M26.3614,55.3897 L6.4164,55.3897 C5.3194,55.3897 4.4294,54.4997 4.4294,53.4027 L4.4294,52.8667 C4.4294,51.7687 5.3194,50.8787 6.4164,50.8787 L26.3614,50.8787 C27.4594,50.8787 28.3484,51.7687 28.3484,52.8667 L28.3484,53.4027 C28.3484,54.4997 27.4594,55.3897 26.3614,55.3897" id="Fill-35" fill="#EF4035" mask="url(#mask-2)"></path>
                        <polygon id="Fill-36" fill="#FFFFFF" mask="url(#mask-2)" points="10.359 53.6413 23.54 53.6413 23.54 52.6273 10.359 52.6273"></polygon>
                    </g>
                </g>
            </g>
        </g>
    </g>
</svg>