<svg xmlns="http://www.w3.org/2000/svg" width="26.949" height="18.949" viewBox="0 0 26.949 18.949"><path d="M27.437,7.465a3.386,3.386,0,0,0-2.383-2.4C22.953,4.5,14.525,4.5,14.525,4.5S6.1,4.5,4,5.067a3.386,3.386,0,0,0-2.383,2.4,35.523,35.523,0,0,0-.563,6.529,35.523,35.523,0,0,0,.563,6.529A3.336,3.336,0,0,0,4,22.882c2.1.567,10.529.567,10.529.567s8.427,0,10.529-.567a3.336,3.336,0,0,0,2.383-2.36A35.523,35.523,0,0,0,28,13.994a35.523,35.523,0,0,0-.563-6.529ZM11.769,18V9.987l7.044,4.007L11.769,18Z" transform="translate(-1.051 -4.5)" fill="#fff"/></svg>