<svg xmlns="http://www.w3.org/2000/svg" width="19.348" height="19.348" viewBox="0 0 19.348 19.348"><path d="M17.966,2.25H1.378A1.388,1.388,0,0,0,0,3.645V20.2A1.388,1.388,0,0,0,1.378,21.6H17.966A1.392,1.392,0,0,0,19.348,20.2V3.645A1.392,1.392,0,0,0,17.966,2.25ZM5.847,18.834H2.98V9.6H5.852v9.233ZM4.414,8.339A1.663,1.663,0,1,1,6.076,6.677,1.663,1.663,0,0,1,4.414,8.339ZM16.6,18.834H13.729V14.342c0-1.071-.022-2.449-1.49-2.449-1.494,0-1.723,1.166-1.723,2.371v4.569H7.648V9.6H10.4v1.261h.039a3.02,3.02,0,0,1,2.716-1.49c2.9,0,3.442,1.913,3.442,4.4Z" transform="translate(0 -2.25)" fill="#fff"/></svg>