<svg xmlns="http://www.w3.org/2000/svg" width="19.148" height="19.148" viewBox="0 0 19.148 19.148"><path d="M9.574,0c-2.6,0-2.926.012-3.947.057A7.06,7.06,0,0,0,3.3.5a4.689,4.689,0,0,0-1.7,1.1A4.671,4.671,0,0,0,.5,3.3,7.039,7.039,0,0,0,.057,5.627C.01,6.648,0,6.973,0,9.574S.012,12.5.057,13.521A7.064,7.064,0,0,0,.5,15.845a4.7,4.7,0,0,0,1.1,1.7,4.682,4.682,0,0,0,1.7,1.1,7.069,7.069,0,0,0,2.324.445c1.021.048,1.346.057,3.947.057s2.926-.012,3.947-.057a7.085,7.085,0,0,0,2.324-.445,4.893,4.893,0,0,0,2.8-2.8,7.064,7.064,0,0,0,.445-2.324c.048-1.021.057-1.346.057-3.947s-.012-2.926-.057-3.947A7.081,7.081,0,0,0,18.646,3.3a4.7,4.7,0,0,0-1.1-1.7,4.665,4.665,0,0,0-1.7-1.1A7.044,7.044,0,0,0,13.521.057C12.5.01,12.175,0,9.574,0Zm0,1.723c2.556,0,2.86.013,3.87.057a5.275,5.275,0,0,1,1.777.331,3.151,3.151,0,0,1,1.818,1.817,5.286,5.286,0,0,1,.33,1.777c.045,1.01.056,1.313.056,3.87s-.012,2.86-.059,3.87a5.388,5.388,0,0,1-.336,1.777,3.04,3.04,0,0,1-.717,1.1,2.987,2.987,0,0,1-1.1.715,5.325,5.325,0,0,1-1.783.33c-1.016.045-1.316.056-3.877.056s-2.861-.012-3.877-.059a5.429,5.429,0,0,1-1.784-.336,2.965,2.965,0,0,1-1.1-.717,2.907,2.907,0,0,1-.718-1.1,5.434,5.434,0,0,1-.335-1.783c-.036-1.005-.049-1.316-.049-3.865S1.7,6.7,1.736,5.684A5.427,5.427,0,0,1,2.071,3.9a2.838,2.838,0,0,1,.718-1.1,2.832,2.832,0,0,1,1.1-.716,5.3,5.3,0,0,1,1.772-.336C6.679,1.711,6.978,1.7,9.538,1.7l.036.024Zm0,2.934a4.916,4.916,0,1,0,4.916,4.916A4.916,4.916,0,0,0,9.574,4.658Zm0,8.108a3.191,3.191,0,1,1,3.191-3.191A3.191,3.191,0,0,1,9.574,12.766Zm6.26-8.3a1.149,1.149,0,1,1-1.149-1.148A1.15,1.15,0,0,1,15.834,4.464Z" fill="#fff"/></svg>