<svg xmlns="http://www.w3.org/2000/svg" xmlns:xlink="http://www.w3.org/1999/xlink" width="26.176" height="40.592" viewBox="0 0 26.176 40.592"><defs><clipPath id="a"><rect width="26.176" height="40.592" fill="none"/></clipPath></defs><g clip-path="url(#a)"><path d="M20712.654,20578.713h-4v-10.3a11.238,11.238,0,0,1,22.477,0v2.555h-4v-1.645l2.154-2.258h-2.279a7.242,7.242,0,0,0-14.359,1.348v10.3Z" transform="translate(-20706.352 -20557.172)" fill="#ef4035" stroke="rgba(0,0,0,0)" stroke-miterlimit="10" stroke-width="1"/><path d="M25.626,27.261H.55a.55.55,0,0,1-.55-.55V23.827a.55.55,0,0,1,.55-.55H25.626a.55.55,0,0,1,.55.55v2.884a.55.55,0,0,1-.55.55" transform="translate(0 -4.683)" fill="#fec22e"/><rect width="12.401" height="14.044" transform="translate(13.101 22.578)" fill="#fccd66"/><rect width="12.43" height="14.044" transform="translate(0.673 22.578)" fill="#faab00"/><path d="M25.626,49.811H.55a.55.55,0,0,1-.55-.55V46.377a.55.55,0,0,1,.55-.55H25.626a.55.55,0,0,1,.55.55v2.884a.55.55,0,0,1-.55.55" transform="translate(0 -9.219)" fill="#fec22e"/><path d="M11.206,30.688a.616.616,0,0,1-.616.616H.842V30.072H10.59a.616.616,0,0,1,.616.616" transform="translate(-0.169 -6.05)" fill="#fccd66"/><path d="M11.206,33.781a.616.616,0,0,1-.616.616H.842V33.165H10.59a.616.616,0,0,1,.616.616" transform="translate(-0.169 -6.672)" fill="#fccd66"/><path d="M11.206,36.874a.616.616,0,0,1-.616.616H.842V36.258H10.59a.616.616,0,0,1,.616.616" transform="translate(-0.169 -7.294)" fill="#fccd66"/><path d="M11.206,39.967a.616.616,0,0,1-.616.616H.842V39.351H10.59a.616.616,0,0,1,.616.616" transform="translate(-0.169 -7.917)" fill="#fccd66"/><path d="M11.206,43.06a.615.615,0,0,1-.616.61H.842V42.444H10.59a.616.616,0,0,1,.616.616" transform="translate(-0.169 -8.539)" fill="#fccd66"/><path d="M18.951,43.053a.616.616,0,0,1,.616-.616h9.748v1.232H19.567a.616.616,0,0,1-.616-.616" transform="translate(-3.813 -8.537)" fill="#faab00"/><path d="M18.951,39.96a.616.616,0,0,1,.616-.616h9.748v1.232H19.567a.616.616,0,0,1-.616-.616" transform="translate(-3.813 -7.915)" fill="#faab00"/><path d="M18.951,36.867a.616.616,0,0,1,.616-.616h9.748v1.232H19.567a.616.616,0,0,1-.616-.616" transform="translate(-3.813 -7.293)" fill="#faab00"/><path d="M18.951,33.774a.616.616,0,0,1,.616-.616h9.748V34.39H19.567a.616.616,0,0,1-.616-.616" transform="translate(-3.813 -6.671)" fill="#faab00"/><path d="M18.951,30.682a.615.615,0,0,1,.616-.61h9.748V31.3H19.567a.616.616,0,0,1-.616-.616" transform="translate(-3.813 -6.05)" fill="#faab00"/></g></svg>