<svg xmlns="http://www.w3.org/2000/svg" xmlns:xlink="http://www.w3.org/1999/xlink" width="32.58" height="41.066" viewBox="0 0 32.58 41.066"><defs><clipPath id="a"><rect width="32.579" height="41.066" fill="none"/></clipPath></defs><g clip-path="url(#a)"><path d="M20.856,6.558a9.924,9.924,0,0,1-.1,1.405,9.279,9.279,0,0,1-.571,2.181,6.9,6.9,0,0,1-2.8,3.542,4.307,4.307,0,0,1-4.494-.066,7.007,7.007,0,0,1-2.708-3.484,9.386,9.386,0,0,1-.549-2.108.214.214,0,0,1-.015-.066,9.924,9.924,0,0,1-.1-1.405A7.354,7.354,0,0,1,10.72,2.305c.066-.1.132-.183.2-.271A5.3,5.3,0,0,1,15.184,0c2.854,0,5.013,1.947,5.54,5.021a8.587,8.587,0,0,1,.132,1.537" transform="translate(-2.55 0)" fill="#d3a572"/><path d="M25.383,12.369a.978.978,0,1,0-1.779-.7.978.978,0,1,0,1.779.7" transform="translate(-6.302 -2.913)" fill="#d3a572"/><path d="M9.851,13.05a.834.834,0,0,1-.139.073,1.079,1.079,0,0,1-1.317-.754,1.083,1.083,0,0,1,.454-1.449.792.792,0,0,1,.432-.044h.007a1.108,1.108,0,0,1,.637.4,1.329,1.329,0,0,1,.249.4,1.137,1.137,0,0,1-.322,1.376" transform="translate(-2.224 -2.913)" fill="#d3a572"/><path d="M19.687,20.851l-3.93,2.21-.007.007-.015-.007-3.93-2.21.937-1.347c.6,0,.79-.973.79-2.086,0-1.061,2.013-.19,2.21-.1h.007c.2-.088,2.21-.959,2.21.1,0,1.112.19,2.086.79,2.086Z" transform="translate(-3.165 -4.53)" fill="#d3a572"/><path d="M1.907,31.15,1.9,31.11l-.338,2.169L.319,41.253.01,43.235a1.137,1.137,0,0,0,.029.441,1.417,1.417,0,0,0,.389.674,2.244,2.244,0,0,0,1.249.6,2.757,2.757,0,0,0,.391.029,1.588,1.588,0,0,0,1.714-1.173l1.888-11.7Z" transform="translate(0 -8.341)" fill="#d3a572"/><path d="M23.271,23.966,9.9,37.344l-.812.8-1.742,4.23-.1.249H6.124L6.4,29.257l.007-.249-.044.242L2.6,28.291,2.6,28.254l.11-.71.827-5.277a2.366,2.366,0,0,1,1.991-1.705s4.662-.066,4.7-.1c0,0,.439.446.439.468a3.31,3.31,0,0,0,5.218,0c-.029-.029.439-.468.439-.468.029.037,4.7.1,4.7.1a2.375,2.375,0,0,1,1.991,1.705Z" transform="translate(-0.696 -5.486)" fill="#ef4035"/><path d="M17.131,25.32v.015l-.007-.007Z" transform="translate(-4.591 -6.789)" fill="#333"/><path d="M17.119,25.327l-.015.007V25.32Z" transform="translate(-4.586 -6.789)" fill="#333"/><path d="M21.167,5.021a2.559,2.559,0,0,1-1.705.732c-3.659.344-7.055-.966-7.45-2.54l-.849-.908c.066-.1.132-.183.2-.271A5.3,5.3,0,0,1,15.626,0c2.854,0,5.013,1.947,5.54,5.021" transform="translate(-2.993 0)" fill="#333"/><path d="M10.237,8.437a2.838,2.838,0,0,1,.015.666.879.879,0,0,1-.366.666c-.081-.307-.176-.659-.256-1a.233.233,0,0,1-.022-.066h.007a9.924,9.924,0,0,1-.1-1.405A7.354,7.354,0,0,1,10.72,3.051c.066-.1.132-.183.2-.271l.651,1.178a10.219,10.219,0,0,1-1.332,4.479" transform="translate(-2.55 -0.745)" fill="#333"/><path d="M23.538,8.437a2.838,2.838,0,0,0-.015.666.879.879,0,0,0,.366.666c.081-.307.176-.659.256-1a.233.233,0,0,0,.022-.066H24.16a9.924,9.924,0,0,0,.1-1.405,7.354,7.354,0,0,0-1.208-4.252c-.066-.1-.132-.183-.2-.271l-.651,1.178a10.219,10.219,0,0,0,1.332,4.479" transform="translate(-5.954 -0.745)" fill="#333"/><path d="M12.813,46.677l.7-.694,3.917,3.97-.667.678-4.083,1.682-2.634,1.082,1.082-2.624Z" transform="translate(-2.694 -12.329)" fill="#d3a572"/><rect width="1.205" height="5.59" transform="translate(26.176 18.282) rotate(-45)" fill="#fea856"/><path d="M36.933,23.228l3.953,3.953,1.292-1.292a1.038,1.038,0,0,0,0-1.47L39.7,21.936a1.039,1.039,0,0,0-1.47,0Z" transform="translate(-9.903 -5.8)" fill="#e24c5d"/><path d="M13.825,41.047,29.889,24.983l3.948,3.949L17.773,45a.694.694,0,0,0,0-.983.7.7,0,0,0-.962-.031.555.555,0,0,0,.155-.28.687.687,0,0,0-.181-.678.705.705,0,0,0-.963-.031.7.7,0,0,0-.708-1.134.657.657,0,0,0-.3.176.7.7,0,0,0-.005-.989.7.7,0,0,0-.984,0" transform="translate(-3.707 -6.698)" fill="#333"/><path d="M15.586,42.244,31.411,26.419l1.848,1.847L17.438,44.086a.685.685,0,0,0-.181-.678.7.7,0,0,0-.962-.031.7.7,0,0,0-.709-1.134" transform="translate(-4.179 -7.084)" fill="#ef4035"/><path d="M11.131,52.525a1.882,1.882,0,0,1,1.02.523,1.935,1.935,0,0,1,.533,1.02l-2.634,1.082Z" transform="translate(-2.694 -14.083)" fill="#333"/></g></svg>