<svg xmlns="http://www.w3.org/2000/svg" xmlns:xlink="http://www.w3.org/1999/xlink" width="45.852" height="45.859" viewBox="0 0 45.852 45.859"><defs><clipPath id="a"><rect width="45.852" height="45.859" fill="none"/></clipPath></defs><g clip-path="url(#a)"><path d="M32.168,31.881l-.053-.325.007.332.227,12.687A21.251,21.251,0,0,1,28.3,45.6H21.7a21.414,21.414,0,0,1-4.063-1.034L17.9,31.813v-.257l-.038.249L15.917,43.857A20.707,20.707,0,0,1,12.27,41.72l.076-.476,1.284-8.231.347-2.235.114-.733.853-5.444a2.439,2.439,0,0,1,2.046-1.76s4.44-.106,4.855-.106.74-.567.823-1.367a7.231,7.231,0,0,1-2.794-3.594.941.941,0,0,1-.144.076,1.114,1.114,0,0,1-1.359-.778,1.117,1.117,0,0,1,.469-1.495.824.824,0,0,1,.445-.046h.007a10.206,10.206,0,0,1-.106-1.45,7.585,7.585,0,0,1,1.246-4.388c.067-.1.135-.189.2-.279a5.666,5.666,0,0,1,8.8,0c.068.091.135.181.2.279.1.144.189.287.272.439.016.007.016.015.016.022a3.128,3.128,0,0,1,.181.347.8.8,0,0,1,.1.2,3.322,3.322,0,0,1,.166.408c.007.007.007.015.015.022.046.129.1.264.136.408.022.076.045.159.067.242a2.249,2.249,0,0,1,.076.332,3.038,3.038,0,0,1,.083.385c.023.121.046.249.061.378.022.189.046.37.053.567s.022.423.022.641a10.206,10.206,0,0,1-.106,1.45h.007a.744.744,0,0,1,.423.038,1.132,1.132,0,0,1,.475,1.5,1.128,1.128,0,0,1-1.367.778.441.441,0,0,1-.128-.068,7.114,7.114,0,0,1-2.892,3.655c.083.763.015,1.337.785,1.337s4.886.067,4.886.067A2.442,2.442,0,0,1,35.03,24.6l.853,5.444.113.725L37.7,41.735a20.647,20.647,0,0,1-3.647,2.137Z" transform="translate(-2.076 -1.238)" fill="#ef4035"/><path d="M22.925,45.859a22.969,22.969,0,0,1-3.49-.263,22.657,22.657,0,0,1-4.3-1.094c-.652-.233-1.252-.481-1.832-.755a21.932,21.932,0,0,1-3.851-2.259,22.931,22.931,0,1,1,26.9.02,21.97,21.97,0,0,1-3.86,2.261c-.556.258-1.164.508-1.8.739A22.46,22.46,0,0,1,26.412,45.6a22.866,22.866,0,0,1-3.486.263m0-43.367a20.44,20.44,0,0,0-12,36.982,19.429,19.429,0,0,0,3.431,2.011c.522.247,1.048.464,1.626.671a20.169,20.169,0,0,0,3.827.975,20.788,20.788,0,0,0,6.224,0,20,20,0,0,0,3.813-.967c.565-.206,1.106-.428,1.605-.66a19.477,19.477,0,0,0,3.436-2.012,20.435,20.435,0,0,0-11.965-37" transform="translate(0 0)" fill="#ef4035"/></g></svg>