<svg xmlns="http://www.w3.org/2000/svg" xmlns:xlink="http://www.w3.org/1999/xlink" width="32.035" height="37.373" viewBox="0 0 32.035 37.373"><defs><clipPath id="a"><rect width="32.035" height="37.373" fill="none"/></clipPath></defs><g clip-path="url(#a)"><path d="M7.752.246a9.934,9.934,0,1,0,11.878,7.5A9.94,9.94,0,0,0,7.752.246M7.929,9.2A2.567,2.567,0,1,1,9.874,6.137,2.563,2.563,0,0,1,7.929,9.2" transform="translate(-0.001 0)" fill="#fec22e"/><path d="M20.667,23.818,35.654,43.059l-2.429-.274L30.8,42.51,17.911,25.966Z" transform="translate(-4.276 -5.686)" fill="#fec22e"/><path d="M33.316,29.646l.409,2.912,2.721,1.108.408,2.911.753.965-.329,2.423L23.341,22.072,24.721,21l2.741,3.521,2.723,1.108.407,2.912Z" transform="translate(-5.572 -5.013)" fill="#faab00"/><path d="M22.91,22.409,36.846,40.3l-.328,2.42L21.532,23.482Z" transform="translate(-5.14 -5.35)" fill="#fec22e"/><path d="M21.1,23.818,36.086,43.059l-2.429-.274L19.722,24.892Z" transform="translate(-4.708 -5.686)" fill="#faab00"/><rect width="8.901" height="2.968" transform="matrix(0.789, -0.614, 0.614, 0.789, 11.882, 19.669)" fill="#fec22e"/><path d="M8.746,9.55a2.391,2.391,0,0,1-.824.349,2.57,2.57,0,0,1-2.29-4.411L3.67,2.921a9.934,9.934,0,0,0,8.464,17.4,9.754,9.754,0,0,0,3.607-1.631Z" transform="translate(0 -0.697)" fill="#fccd66"/></g></svg>