<svg xmlns="http://www.w3.org/2000/svg" width="63.646" height="55.859" viewBox="0 0 63.646 55.859"><g transform="translate(0.771 0.75)"><path d="M31.063,2.25C13.905,2.25,0,13.547,0,27.488A22.4,22.4,0,0,0,6.916,43.347C5.4,49.463.328,54.911.267,54.971a.965.965,0,0,0-.182,1.056.95.95,0,0,0,.886.582,27.749,27.749,0,0,0,17.06-6.237,37.005,37.005,0,0,0,13.032,2.354c17.157,0,31.063-11.3,31.063-25.238S48.22,2.25,31.063,2.25ZM15.531,31.371a3.883,3.883,0,1,1,3.883-3.883A3.879,3.879,0,0,1,15.531,31.371Zm15.531,0a3.883,3.883,0,1,1,3.883-3.883A3.879,3.879,0,0,1,31.063,31.371Zm15.531,0a3.883,3.883,0,1,1,3.883-3.883A3.879,3.879,0,0,1,46.594,31.371Z" transform="translate(0 -2.25)" fill="none" stroke="#000" stroke-width="1.5"/></g></svg>