<?xml version="1.0" encoding="UTF-8" standalone="no"?>
<!DOCTYPE svg PUBLIC "-//W3C//DTD SVG 1.1//EN" "http://www.w3.org/Graphics/SVG/1.1/DTD/svg11.dtd">
<svg width="100%" height="100%" viewBox="0 0 137 137" version="1.1" xmlns="http://www.w3.org/2000/svg" xmlns:xlink="http://www.w3.org/1999/xlink" xml:space="preserve" xmlns:serif="http://www.serif.com/" style="fill-rule:evenodd;clip-rule:evenodd;stroke-linejoin:round;stroke-miterlimit:2;">
    <g transform="matrix(1.03528,0,0,1.03528,-2.41642,-2.41642)">
        <g id="safe-logo">
            <g id="circle">
                <path d="M80.544,29.842c-7.074,-2.214 -14.839,-2.514 -22.524,-0.454c-7.685,2.059 -14.26,6.201 -19.279,11.655l12.03,-38.709l29.773,27.508Z" style="fill:#f68e1e;"/>
                <path d="M59.597,28.998c-0.528,0.119 -1.053,0.249 -1.577,0.39c-15.022,4.025 -25.804,16.01 -29.023,30.204l-8.934,-39.529l39.534,8.935Z" style="fill:#f1e900;"/>
                <path d="M41.034,38.744c-10.683,9.884 -15.672,25.214 -11.646,40.236c0.14,0.525 0.29,1.044 0.451,1.561l-27.505,-29.77l38.7,-12.027Z" style="fill:#54b847;"/>
                <path d="M29.842,56.456c-2.214,7.074 -2.514,14.839 -0.454,22.524c2.059,7.685 6.201,14.26 11.655,19.279l-38.709,-12.03l27.508,-29.773Z" style="fill:#00a08e;"/>
                <path d="M28.998,77.403c0.119,0.528 0.249,1.053 0.39,1.577c4.025,15.022 16.01,25.804 30.204,29.023l-39.529,8.934l8.935,-39.534Z" style="fill:#0081c5;"/>
                <path d="M38.744,95.966c9.884,10.683 25.214,15.672 40.236,11.646c0.525,-0.14 1.044,-0.29 1.561,-0.451l-29.77,27.505l-12.027,-38.7Z" style="fill:#005caa;"/>
                <path d="M86.229,134.666l-29.773,-27.508c7.074,2.214 14.839,2.514 22.524,0.454c7.685,-2.059 14.26,-6.201 19.279,-11.655l-12.03,38.709Z" style="fill:#9a5ba4;"/>
                <path d="M116.937,116.937l-39.534,-8.935c0.528,-0.119 1.053,-0.249 1.577,-0.39c15.022,-4.025 25.804,-16.01 29.023,-30.204l8.934,39.529Z" style="fill:#ed2b74;"/>
                <path d="M134.666,86.229l-38.7,12.027c10.683,-9.884 15.672,-25.214 11.646,-40.236c-0.14,-0.525 -0.29,-1.044 -0.451,-1.561l27.505,29.77Z" style="fill:#ee4135;"/>
                <path d="M134.666,50.771l-27.508,29.773c2.214,-7.074 2.514,-14.839 0.454,-22.524c-2.059,-7.685 -6.201,-14.26 -11.655,-19.279l38.709,12.03Z" style="fill:#f37a20;"/>
                <g transform="matrix(0.965926,0,0,0.965926,2.33408,2.33408)">
                    <path d="M79.57,27.186l39.075,-8.831l-9.25,40.928c-0.123,-0.546 -0.257,-1.09 -0.403,-1.633c-4.167,-15.552 -16.575,-26.714 -31.27,-30.046l0,-0c1.096,0.248 2.179,0.54 3.247,0.874l-1.399,-1.292Z" style="fill:#fcba30;"/>
                </g>
                <g transform="matrix(0.965926,0,0,0.965926,2.33408,2.33408)">
                    <path d="M68.5,16.958l18.355,-16.958l12.451,40.065c-7.394,-7.991 -17.733,-12.905 -28.768,-13.444c3.575,0.174 7.078,0.808 10.431,1.857l-12.469,-11.52Zm-12.074,11.398c-0.131,0.039 -0.261,0.079 -0.391,0.119l-0,-0l0.137,-0.042c0.061,-0.019 0.122,-0.038 0.183,-0.056l0.071,-0.021Zm0.187,-0.056l-0.162,0.048l0.088,-0.026l0.074,-0.022Zm0.19,-0.056l-0.142,0.042l0.062,-0.019l0.08,-0.023Zm0.191,-0.055l-0.13,0.038l0.044,-0.013l0.086,-0.025Zm0.195,-0.055l-0.126,0.036l0.03,-0.009l0.096,-0.027Zm0.204,-0.056l-0.134,0.037l0.019,-0.006l0.115,-0.031Zm0.062,-0.017c0.065,-0.018 0.13,-0.036 0.195,-0.053l-0.195,0.053Zm0.441,-0.118l-0.061,0.016l0.061,-0.016Zm0.197,-0.051l-0.074,0.019l0.074,-0.019Zm0.189,-0.048l-0.079,0.019l0.007,-0.001l0.072,-0.018Zm0.188,-0.047l-0.082,0.02l0.008,-0.002l0.074,-0.018Zm0.186,-0.046l-0.084,0.021l0.011,-0.003l0.073,-0.018Zm0.186,-0.044l-0.085,0.02l0.012,-0.003l0.073,-0.017Zm0.186,-0.044l-0.087,0.02l0.015,-0.003l0.072,-0.017Zm0.185,-0.042l-0.087,0.019l0.017,-0.003l0.07,-0.016Zm0.185,-0.042l-0.087,0.019l0.018,-0.004l0.069,-0.015Zm0.185,-0.041l-0.088,0.019l0.021,-0.004l0.067,-0.015Zm0.185,-0.04l-0.088,0.019l0.023,-0.005l0.065,-0.014Zm0.185,-0.039l-0.089,0.019l0.025,-0.006l0.064,-0.013Zm0.185,-0.038l-0.089,0.018l0.027,-0.006l0.062,-0.012Zm0.185,-0.038l-0.09,0.018l0.03,-0.006l0.06,-0.012Zm0.185,-0.036l-0.09,0.017l0.031,-0.006l0.059,-0.011Zm0.185,-0.036l-0.091,0.017l0.034,-0.006l0.057,-0.011Zm0.185,-0.035l-0.091,0.017l0.036,-0.006l0.055,-0.011Zm0.185,-0.034l-0.092,0.017l0.038,-0.007l0.054,-0.01Zm0.185,-0.033l-0.093,0.017l0.041,-0.008l0.052,-0.009Zm0.184,-0.032l-0.092,0.016l0.043,-0.007l0.049,-0.009Zm0.185,-0.031l-0.093,0.015l0.045,-0.007l0.048,-0.008Zm0.185,-0.031l-0.094,0.016l0.048,-0.008l0.046,-0.008Zm0.185,-0.029l-0.095,0.015l0.05,-0.009l0.045,-0.006Zm0.184,-0.029l-0.095,0.014l0.053,-0.008l0.042,-0.006Zm0.185,-0.028l-0.096,0.014l0.055,-0.008l0.041,-0.006Zm0.185,-0.027l-0.097,0.014l0.058,-0.009l0.039,-0.005Zm0.184,-0.027l-0.097,0.014l0.06,-0.009l0.037,-0.005Zm0.185,-0.025l-0.098,0.013l0.063,-0.008l0.035,-0.005Zm0.184,-0.025l-0.099,0.013l0.066,-0.008l0.033,-0.005Zm0.185,-0.024l-0.101,0.013l0.07,-0.009l0.031,-0.004Zm0.185,-0.022l-0.103,0.012l0.073,-0.009l0.03,-0.003Zm0.184,-0.023l-0.104,0.013l0.076,-0.009l0.028,-0.004Zm0.184,-0.021l-0.106,0.012l0.081,-0.009l0.025,-0.003Zm0.185,-0.02l-0.109,0.012l0.085,-0.01l0.024,-0.002Zm0.184,-0.02l-0.112,0.012l0.09,-0.01l0.022,-0.002Zm0.184,-0.019l-0.115,0.012l0.095,-0.01l0.02,-0.002Zm0.185,-0.018l-0.121,0.012l0.102,-0.01l0.019,-0.002Zm0.184,-0.017l-0.128,0.012l0.111,-0.01l0.017,-0.002Zm0.184,-0.016l-0.137,0.012l0.122,-0.011l0.015,-0.001Zm0.184,-0.015l-0.152,0.012l0.139,-0.011l0.013,-0.001Zm1.626,-0.101c-0.538,0.023 -1.078,0.056 -1.619,0.1c0.541,-0.044 1.08,-0.077 1.619,-0.1Zm3.716,0.008l0.071,0.004l-0.174,-0.008l0.103,0.004Zm-0.183,-0.008l0.074,0.003l-0.171,-0.007l0.097,0.004Zm-3.358,-0.007l-0.167,0.006l0.023,-0.001l0.144,-0.005Zm3.174,-0l0.077,0.003l-0.168,-0.007l0.091,0.004Zm-2.997,-0.007l-0.162,0.006l0.026,-0.001l0.136,-0.005Zm2.814,-0l0.079,0.003l-0.165,-0.006l0.086,0.003Zm-2.635,-0.005l-0.159,0.005l0.029,-0.001l0.13,-0.004Zm2.451,-0.001l0.082,0.003l-0.163,-0.005l0.081,0.002Zm-2.272,-0.004l-0.156,0.004l0.032,-0.001l0.124,-0.003Zm2.089,-0.001l0.084,0.002l-0.161,-0.004l0.077,0.002Zm-1.909,-0.003l-0.154,0.003l0.035,-0.001l0.119,-0.002Zm1.725,-0.001l0.086,0.002l-0.158,-0.003l0.072,0.001Zm-1.544,-0.003l-0.154,0.003l0.039,-0.001l0.115,-0.002Zm1.36,-0l0.089,0.001l-0.157,-0.002l0.068,0.001Zm-1.18,-0.002l-0.152,0.002l0.042,-0.001l0.11,-0.001Zm0.996,-0.001l0.092,0.001l-0.156,-0.002l0.064,0.001Zm-0.814,-0.001l-0.153,0.001l0.045,-0l0.108,-0.001Zm0.63,-0.001l0.095,0.001l-0.155,-0.001l0.06,0Zm-0.449,-0l-0.153,0l0.049,0l0.104,-0Zm0.265,-0.001l0.097,0.001l-0.153,-0.001l0.056,0Zm-0.084,0l-0.153,0.001l0.052,-0.001l0.101,0Z" style="fill:#fec50b;"/>
                </g>
            </g>
        </g>
    </g>
</svg>
