<?xml version="1.0" encoding="UTF-8"?>
<svg width="114px" height="104px" viewBox="0 0 114 104" version="1.1" xmlns="http://www.w3.org/2000/svg" xmlns:xlink="http://www.w3.org/1999/xlink">
    <title>Images/Logo/Safe_Financial-Logo</title>
    <defs>
        <polygon id="path-1" points="0 0.4984 29.0069 0.4984 29.0069 37.6514 0 37.6514"></polygon>
        <polygon id="path-3" points="0 103 113.414 103 113.414 0.747 0 0.747"></polygon>
    </defs>
    <g id="Images/Logo/Safe_Financial-Logo" stroke="none" stroke-width="1" fill="none" fill-rule="evenodd">
        <g>
            <path d="M112.5963,48.7643 L111.5813,51.3353 L110.5653,48.7643 L109.7503,48.7643 L109.7503,52.0973 L110.2663,52.0973 L110.2663,49.2343 L110.2843,49.2343 L111.4363,52.0973 L111.7283,52.0973 L112.8813,49.2343 L112.8983,49.2343 L112.8983,52.0973 L113.4143,52.0973 L113.4143,48.7643 L112.5963,48.7643 Z M106.6693,48.7643 L106.6693,49.2343 L107.7103,49.2343 L107.7103,52.0973 L108.2273,52.0973 L108.2273,49.2343 L109.2663,49.2343 L109.2663,48.7643 L106.6693,48.7643 Z" id="Fill-1" fill="#404042"></path>
            <g id="Group-46" transform="translate(0.000000, 0.253000)">
                <g id="Group-4" transform="translate(0.000000, 48.000000)">
                    <mask id="mask-2" fill="white">
                        <use xlink:href="#path-1"></use>
                    </mask>
                    <g id="Clip-3"></g>
                    <path d="M20.7719,11.8974 C19.9499,8.5194 17.5429,7.1124 14.5019,7.1124 C12.6019,7.1124 9.6889,7.6754 9.6889,10.2784 C9.6889,16.9634 29.0069,9.3644 29.0069,25.4774 C29.0069,29.2064 27.4219,32.5144 24.6989,34.6964 C21.7859,36.9474 18.2389,37.6514 14.6919,37.6514 C7.9789,37.6514 1.7089,35.1174 -0.0001,27.0964 L8.0419,25.8294 C8.6749,29.4884 12.1589,30.6144 15.1349,30.6144 C16.9089,30.6144 20.7719,29.9104 20.7719,27.2374 C20.7719,24.8444 18.8719,24.4224 17.1629,24.2104 C14.9459,23.9284 9.6259,22.8744 7.5979,22.1004 C3.7989,20.6224 1.2659,16.9634 1.2659,12.4594 C1.2659,3.6644 8.1689,0.4984 15.0079,0.4984 C21.3419,0.4984 25.4589,3.1714 27.6759,9.8564 L20.7719,11.8974 Z" id="Fill-2" fill="#404042" mask="url(#mask-2)"></path>
                </g>
                <path d="M50.3485,67.8486 C46.8015,68.2716 40.2785,69.1866 40.2785,74.3926 C40.2785,77.2056 41.7975,79.1076 44.3965,79.1076 C46.2955,79.1076 48.0045,77.9816 49.0825,76.1516 C50.4115,73.8996 50.3485,71.7896 50.3485,69.2546 L50.3485,67.8486 Z M51.2355,84.9476 C50.8555,83.1176 50.7295,81.2176 50.7915,79.3886 C48.1325,83.6106 45.3455,85.6516 40.5325,85.6516 C34.8305,85.6516 30.3995,82.2736 30.3995,75.5186 C30.3995,70.2416 33.3755,66.6536 37.6185,64.8936 C41.2915,63.3446 46.4225,63.0636 50.3485,62.6416 L50.3485,61.7956 C50.3485,60.2486 50.4755,58.4186 49.5245,57.0826 C48.7025,55.8876 47.1195,55.3936 45.7255,55.3936 C42.7485,55.3936 40.1515,57.0826 40.1515,60.6006 L31.3475,59.6866 C32.2985,51.0326 39.8975,48.4976 46.6755,48.4976 C49.9685,48.4976 54.2755,49.3426 56.8715,51.7346 C60.1645,54.6896 59.8485,58.6306 59.8485,62.9226 L59.8485,79.5996 C59.8485,81.4296 59.9755,83.1886 60.4815,84.9476 L51.2355,84.9476 Z" id="Fill-5" fill="#404042"></path>
                <path d="M73.8447,84.9472 L64.5347,84.9472 L64.5347,58.1372 L60.7967,58.1372 L60.7967,50.1162 L64.5347,50.1162 C64.5347,47.0202 64.4067,43.2912 65.9907,40.6172 C68.1437,37.0292 72.3877,35.6222 76.0617,35.9732 L80.3677,36.3952 L80.3677,44.3462 L77.2007,44.1352 C73.8447,43.9242 73.8447,46.3162 73.8447,49.3432 L73.8447,50.1162 L79.5447,50.1162 L79.5447,58.1372 L73.8447,58.1372 L73.8447,84.9472 Z" id="Fill-7" fill="#404042"></path>
                <path d="M100.8232,62.7119 C100.6332,58.8419 99.4932,55.2529 95.4402,55.2529 C91.3232,55.2529 89.7392,58.6309 89.4242,62.7119 L100.8232,62.7119 Z M89.4862,68.8339 L89.4242,70.5929 C89.4242,74.8149 91.5772,78.2629 95.6302,78.2629 C98.4792,78.2629 101.3292,75.9409 101.3292,72.6329 L109.9442,73.3379 C109.9442,75.0969 106.2062,85.6509 95.3132,85.6509 C85.6862,85.6509 79.4172,78.1929 79.4172,67.5659 C79.4172,57.0129 85.0522,48.4979 95.0592,48.4979 C99.5572,48.4979 104.1782,50.7499 106.8402,54.8309 C109.5012,58.9129 110.1962,63.9779 110.1332,68.8339 L89.4862,68.8339 Z" id="Fill-9" fill="#404042"></path>
                <polygon id="Fill-11" fill="#404042" points="51.3241 102.8222 51.3241 90.5842 58.8151 90.5842 58.8151 91.9042 52.8581 91.9042 52.8581 95.7922 57.8001 95.7922 57.8001 97.0232 52.8581 97.0232 52.8581 102.8222"></polygon>
                <mask id="mask-4" fill="white">
                    <use xlink:href="#path-3"></use>
                </mask>
                <g id="Clip-14"></g>
                <path d="M59.512,102.822 L60.903,102.822 L60.903,93.759 L59.512,93.759 L59.512,102.822 Z M59.441,92.154 L60.975,92.154 L60.975,90.584 L59.441,90.584 L59.441,92.154 Z" id="Fill-13" fill="#404042" mask="url(#mask-4)"></path>
                <path d="M63.829,95.4365 L63.865,95.4365 C64.382,94.3135 65.397,93.5285 66.683,93.5285 C67.77,93.5285 68.681,93.9925 69.251,94.9355 C69.716,95.7055 69.68,96.9155 69.68,97.8085 L69.68,102.8225 L68.288,102.8225 L68.288,97.2195 C68.288,96.6835 68.306,96.0065 68.039,95.5435 C67.735,95.0265 67.075,94.7225 66.486,94.7225 C65.756,94.7225 65.096,95.0625 64.614,95.6315 C64.025,96.3465 63.899,97.1665 63.899,98.0765 L63.899,102.8225 L62.509,102.8225 L62.509,93.7595 L63.829,93.7595 L63.829,95.4365 Z" id="Fill-15" fill="#404042" mask="url(#mask-4)"></path>
                <path d="M77.1542,98.2548 L75.9952,98.2548 C74.5682,98.2548 72.3212,98.4498 72.3212,100.3228 C72.3212,101.4478 73.2842,101.9108 74.2802,101.9108 C75.9952,101.9108 77.1542,100.4488 77.1542,98.8428 L77.1542,98.2548 Z M77.1542,97.2018 L77.1542,96.8088 C77.1542,95.2228 76.4582,94.6158 74.8532,94.6158 C73.7122,94.6158 72.6232,94.9728 72.3742,96.2218 L71.0702,96.0068 C71.3212,94.1168 73.3192,93.5278 74.9782,93.5278 C75.9582,93.5278 77.0822,93.6348 77.7602,94.4188 C78.5102,95.2228 78.5102,96.3638 78.5102,97.3988 L78.5102,100.9128 C78.5102,101.5718 78.5282,102.2328 78.7062,102.8218 L77.3142,102.8218 L77.1542,101.1258 C76.5122,102.4288 75.4232,102.9998 73.9782,102.9998 C72.2852,102.9998 70.8212,102.0548 70.8212,100.2508 C70.8212,99.1638 71.4992,98.1838 72.4972,97.7378 C73.5152,97.2548 74.8532,97.2018 75.9772,97.2018 L77.1542,97.2018 Z" id="Fill-16" fill="#404042" mask="url(#mask-4)"></path>
                <path d="M80.5966,95.4365 L80.6336,95.4365 C81.1516,94.3135 82.1666,93.5285 83.4506,93.5285 C84.5396,93.5285 85.4496,93.9925 86.0196,94.9355 C86.4856,95.7055 86.4486,96.9155 86.4486,97.8085 L86.4486,102.8225 L85.0566,102.8225 L85.0566,97.2195 C85.0566,96.6835 85.0756,96.0065 84.8076,95.5435 C84.5036,95.0265 83.8436,94.7225 83.2546,94.7225 C82.5246,94.7225 81.8626,95.0625 81.3826,95.6315 C80.7936,96.3465 80.6676,97.1665 80.6676,98.0765 L80.6676,102.8225 L79.2776,102.8225 L79.2776,93.7595 L80.5966,93.7595 L80.5966,95.4365 Z" id="Fill-17" fill="#404042" mask="url(#mask-4)"></path>
                <path d="M94.5644,99.8242 C94.2434,101.6612 93.0124,103.0002 91.0694,103.0002 C88.3764,103.0002 87.2154,100.6622 87.2154,98.2902 C87.2154,95.9342 88.3914,93.5282 91.0854,93.5282 C93.0474,93.5282 94.2604,94.7942 94.5644,96.6672 L93.2794,96.8982 C93.1554,95.7052 92.4234,94.7062 91.1224,94.7062 C89.2314,94.7062 88.6954,96.6832 88.6954,98.2002 C88.6954,99.6652 89.1424,101.8052 91.0334,101.8052 C92.3874,101.8052 93.0474,100.8232 93.2794,99.5922 L94.5644,99.8242 Z" id="Fill-18" fill="#404042" mask="url(#mask-4)"></path>
                <path d="M96.258,102.822 L97.649,102.822 L97.649,93.759 L96.258,93.759 L96.258,102.822 Z M96.189,92.154 L97.724,92.154 L97.724,90.584 L96.189,90.584 L96.189,92.154 Z" id="Fill-19" fill="#404042" mask="url(#mask-4)"></path>
                <path d="M105.6962,98.2548 L104.5352,98.2548 C103.1082,98.2548 100.8612,98.4498 100.8612,100.3228 C100.8612,101.4478 101.8252,101.9108 102.8232,101.9108 C104.5352,101.9108 105.6962,100.4488 105.6962,98.8428 L105.6962,98.2548 Z M105.6962,97.2018 L105.6962,96.8088 C105.6962,95.2228 104.9992,94.6158 103.3952,94.6158 C102.2532,94.6158 101.1652,94.9728 100.9152,96.2218 L99.6122,96.0068 C99.8622,94.1168 101.8602,93.5278 103.5182,93.5278 C104.5012,93.5278 105.6242,93.6348 106.3012,94.4188 C107.0502,95.2228 107.0502,96.3638 107.0502,97.3988 L107.0502,100.9128 C107.0502,101.5718 107.0692,102.2328 107.2472,102.8218 L105.8542,102.8218 L105.6962,101.1258 C105.0522,102.4288 103.9662,102.9998 102.5202,102.9998 C100.8252,102.9998 99.3632,102.0548 99.3632,100.2508 C99.3632,99.1638 100.0402,98.1838 101.0402,97.7378 C102.0552,97.2548 103.3952,97.2018 104.5182,97.2018 L105.6962,97.2018 Z" id="Fill-20" fill="#404042" mask="url(#mask-4)"></path>
                <polygon id="Fill-21" fill="#404042" mask="url(#mask-4)" points="108.747 102.822 110.138 102.822 110.138 90.584 108.747 90.584"></polygon>
                <path d="M44.7314,15.4365 L43.4154,20.3195 L43.4134,20.3195 C44.0614,22.7505 44.0184,25.2045 43.4054,27.4695 L46.9854,23.9015 L53.1884,17.7175 L44.7314,15.4365 Z" id="Fill-22" fill="#F37A20" mask="url(#mask-4)"></path>
                <path d="M21.6225,9.205 L13.1645,6.924 L15.4185,15.39 L20.3025,14.089 C20.3035,14.088 20.3055,14.086 20.3075,14.085 C21.9685,12.427 24.0745,11.169 26.5065,10.522 L21.6225,9.205 Z" id="Fill-23" fill="#F1E900" mask="url(#mask-4)"></path>
                <path d="M26.4652,37.2177 C26.4632,37.2177 26.4612,37.2167 26.4592,37.2167 C24.1232,36.5837 21.9862,35.3447 20.2762,33.6337 L21.5752,38.5167 L23.8302,46.9827 L30.0342,40.7977 L26.4652,37.2177 Z" id="Fill-24" fill="#005CAA" mask="url(#mask-4)"></path>
                <path d="M20.2719,33.6289 C18.6129,31.9669 17.3559,29.8609 16.7089,27.4299 L16.7089,27.4299 L15.3909,32.3129 L13.1119,40.7709 L21.5759,38.5169 L20.2759,33.6329 C20.2739,33.6309 20.2719,33.6299 20.2719,33.6289" id="Fill-25" fill="#0081C5" mask="url(#mask-4)"></path>
                <path d="M30.0888,6.9521 L23.9038,0.7471 L21.6228,9.2051 L26.5058,10.5221 C28.9388,9.8751 31.3908,9.9181 33.6568,10.5311 L30.0888,6.9521 Z" id="Fill-26" fill="#F68E1E" mask="url(#mask-4)"></path>
                <path d="M46.9853,23.9013 L43.4053,27.4693 C43.4053,27.4713 43.4033,27.4733 43.4033,27.4753 C42.7703,29.8113 41.5323,31.9483 39.8203,33.6593 L44.7043,32.3593 L53.1693,30.1063 L46.9853,23.9013 Z" id="Fill-27" fill="#EE4135" mask="url(#mask-4)"></path>
                <path d="M15.4184,15.3896 L6.9534,17.6426 L10.0454,20.7456 L13.1384,23.8476 L16.7174,20.2806 C16.7184,20.2776 16.7184,20.2756 16.7194,20.2736 C17.3524,17.9376 18.5904,15.8006 20.3024,14.0896 L15.4184,15.3896 Z" id="Fill-28" fill="#54B847" mask="url(#mask-4)"></path>
                <path d="M33.6161,37.2265 L33.6161,37.2275 C31.1841,37.8735 28.7331,37.8305 26.4651,37.2175 L30.0341,40.7975 L36.2201,47.0015 L38.4991,38.5435 L33.6161,37.2265 Z" id="Fill-29" fill="#9A5BA4" mask="url(#mask-4)"></path>
                <path d="M38.5468,9.2324 L39.8468,14.1154 C39.8488,14.1184 39.8508,14.1194 39.8508,14.1214 C41.5088,15.7814 42.7668,17.8884 43.4128,20.3194 L43.4148,20.3194 L44.7318,15.4364 L47.0118,6.9784 L38.5468,9.2324 Z" id="Fill-30" fill="#FCBA30" mask="url(#mask-4)"></path>
                <path d="M39.8202,33.6596 C39.8182,33.6616 39.8172,33.6626 39.8152,33.6646 C38.1542,35.3226 36.0482,36.5796 33.6162,37.2266 L38.4992,38.5436 L46.9582,40.8246 L44.7042,32.3596 L39.8202,33.6596 Z" id="Fill-31" fill="#ED2B74" mask="url(#mask-4)"></path>
                <path d="M13.1381,23.8476 L6.9341,30.0326 L15.3911,32.3126 L16.7081,27.4296 L16.7081,27.4296 C16.0611,24.9976 16.1051,22.5456 16.7171,20.2806 L13.1381,23.8476 Z" id="Fill-32" fill="#00A08E" mask="url(#mask-4)"></path>
                <path d="M30.0888,6.9521 L33.6568,10.5311 C33.6588,10.5311 33.6608,10.5311 33.6628,10.5331 C35.9988,11.1651 38.1358,12.4041 39.8468,14.1161 L38.5468,9.2321 L36.2928,0.7661 L30.0888,6.9521 Z" id="Fill-33" fill="#FEC50B" mask="url(#mask-4)"></path>
                <path d="M44.7314,15.4365 L43.4154,20.3195 L43.4134,20.3195 C44.0614,22.7505 44.0184,25.2045 43.4054,27.4695 L46.9854,23.9015 L53.1884,17.7175 L44.7314,15.4365 Z" id="Fill-34" fill="#F37A20" mask="url(#mask-4)"></path>
                <path d="M21.6225,9.205 L13.1645,6.924 L15.4185,15.39 L20.3025,14.089 C20.3035,14.088 20.3055,14.086 20.3075,14.085 C21.9685,12.427 24.0745,11.169 26.5065,10.522 L21.6225,9.205 Z" id="Fill-35" fill="#F1E900" mask="url(#mask-4)"></path>
                <path d="M26.4652,37.2177 C26.4632,37.2177 26.4612,37.2167 26.4592,37.2167 C24.1232,36.5837 21.9862,35.3447 20.2762,33.6337 L21.5752,38.5167 L23.8302,46.9827 L30.0342,40.7977 L26.4652,37.2177 Z" id="Fill-36" fill="#005CAA" mask="url(#mask-4)"></path>
                <path d="M20.2719,33.6289 C18.6129,31.9669 17.3559,29.8609 16.7089,27.4299 L16.7089,27.4299 L15.3909,32.3129 L13.1119,40.7709 L21.5759,38.5169 L20.2759,33.6329 C20.2739,33.6309 20.2719,33.6299 20.2719,33.6289" id="Fill-37" fill="#0081C5" mask="url(#mask-4)"></path>
                <path d="M30.0888,6.9521 L23.9038,0.7471 L21.6228,9.2051 L26.5058,10.5221 C28.9388,9.8751 31.3908,9.9181 33.6568,10.5311 L30.0888,6.9521 Z" id="Fill-38" fill="#F68E1E" mask="url(#mask-4)"></path>
                <path d="M46.9853,23.9013 L43.4053,27.4693 C43.4053,27.4713 43.4033,27.4733 43.4033,27.4753 C42.7703,29.8113 41.5323,31.9483 39.8203,33.6593 L44.7043,32.3593 L53.1693,30.1063 L46.9853,23.9013 Z" id="Fill-39" fill="#EE4135" mask="url(#mask-4)"></path>
                <path d="M15.4184,15.3896 L6.9534,17.6426 L10.0454,20.7456 L13.1384,23.8476 L16.7174,20.2806 C16.7184,20.2776 16.7184,20.2756 16.7194,20.2736 C17.3524,17.9376 18.5904,15.8006 20.3024,14.0896 L15.4184,15.3896 Z" id="Fill-40" fill="#54B847" mask="url(#mask-4)"></path>
                <path d="M33.6161,37.2265 L33.6161,37.2275 C31.1841,37.8735 28.7331,37.8305 26.4651,37.2175 L30.0341,40.7975 L36.2201,47.0015 L38.4991,38.5435 L33.6161,37.2265 Z" id="Fill-41" fill="#9A5BA4" mask="url(#mask-4)"></path>
                <path d="M38.5468,9.2324 L39.8468,14.1154 C39.8488,14.1184 39.8508,14.1194 39.8508,14.1214 C41.5088,15.7814 42.7668,17.8884 43.4128,20.3194 L43.4148,20.3194 L44.7318,15.4364 L47.0118,6.9784 L38.5468,9.2324 Z" id="Fill-42" fill="#FCBA30" mask="url(#mask-4)"></path>
                <path d="M39.8202,33.6596 C39.8182,33.6616 39.8172,33.6626 39.8152,33.6646 C38.1542,35.3226 36.0482,36.5796 33.6162,37.2266 L38.4992,38.5436 L46.9582,40.8246 L44.7042,32.3596 L39.8202,33.6596 Z" id="Fill-43" fill="#ED2B74" mask="url(#mask-4)"></path>
                <path d="M13.1381,23.8476 L6.9341,30.0326 L15.3911,32.3126 L16.7081,27.4296 L16.7081,27.4296 C16.0611,24.9976 16.1051,22.5456 16.7171,20.2806 L13.1381,23.8476 Z" id="Fill-44" fill="#00A08E" mask="url(#mask-4)"></path>
                <path d="M30.0888,6.9521 L33.6568,10.5311 C33.6588,10.5311 33.6608,10.5311 33.6628,10.5331 C35.9988,11.1651 38.1358,12.4041 39.8468,14.1161 L38.5468,9.2321 L36.2928,0.7661 L30.0888,6.9521 Z" id="Fill-45" fill="#FEC50B" mask="url(#mask-4)"></path>
            </g>
        </g>
    </g>
</svg>