<svg xmlns="http://www.w3.org/2000/svg" xmlns:xlink="http://www.w3.org/1999/xlink" width="61.561" height="56.965" viewBox="0 0 61.561 56.965"><defs><clipPath id="a"><rect width="61.561" height="56.965" fill="none" stroke="#707070" stroke-width="1.5"/></clipPath></defs><g clip-path="url(#a)"><path d="M57.174,25.551a24.55,24.55,0,0,0-49.1,0" transform="translate(-1.853 0.898)" fill="none" stroke="#000" stroke-miterlimit="10" stroke-width="1.5"/><path d="M11.5,23.77l1.461.506a2.84,2.84,0,0,0,3.475-1.431,20.359,20.359,0,0,1,36.508.032,2.838,2.838,0,0,0,3.439,1.443l1.5-.5" transform="translate(-3.911 -5.42)" fill="none" stroke="#000" stroke-miterlimit="10" stroke-width="1.5"/><path d="M124.769,79.89h-1a3.4,3.4,0,0,1-3.4-3.4V66.1a3.4,3.4,0,0,1,3.4-3.4h1a1.43,1.43,0,0,1,1.43,1.43V78.46A1.43,1.43,0,0,1,124.769,79.89Z" transform="translate(-69.316 -36.172)" fill="none" stroke="#000" stroke-miterlimit="10" stroke-width="1.5"/><path d="M6.635,79.89h-1a1.43,1.43,0,0,1-1.43-1.43V64.138a1.43,1.43,0,0,1,1.43-1.43h1a3.4,3.4,0,0,1,3.4,3.4V76.494A3.4,3.4,0,0,1,6.635,79.89Z" transform="translate(0.469 -36.172)" fill="none" stroke="#000" stroke-miterlimit="10" stroke-width="1.5"/><path d="M107.711,95.557v2.267a11.229,11.229,0,0,1-11.229,11.229h-2.9" transform="translate(-53.217 -55.905)" fill="none" stroke="#000" stroke-linecap="round" stroke-miterlimit="10" stroke-width="1.5"/><path d="M78.761,128.391h2.845a1.919,1.919,0,1,0,0-3.837H78.761a1.919,1.919,0,0,0,0,3.837Z" transform="translate(-43.164 -73.324)" fill="none" stroke="#000" stroke-miterlimit="10" stroke-width="1.5"/><path d="M134.958,81h0V68.235a1.281,1.281,0,0,1,1.281,1.281V79.722A1.281,1.281,0,0,1,134.958,81Z" transform="translate(-76.577 -39.492)" fill="#343434"/><path d="M2.281,81h0A1.281,1.281,0,0,1,1,79.722V69.516a1.281,1.281,0,0,1,1.281-1.281Z" transform="translate(0.898 -39.492)" fill="#343434"/><line y2="0.906" transform="translate(54.494 29.896)" fill="none" stroke="#000" stroke-linecap="round" stroke-miterlimit="10" stroke-width="1.5"/><line y2="4.238" transform="translate(54.494 33.1)" fill="none" stroke="#000" stroke-linecap="round" stroke-miterlimit="10" stroke-width="1.5"/><line y1="0.906" transform="translate(7.267 39.652)" fill="none" stroke="#000" stroke-linecap="round" stroke-miterlimit="10" stroke-width="1.5"/><line y1="5.714" transform="translate(7.267 30.617)" fill="none" stroke="#000" stroke-linecap="round" stroke-miterlimit="10" stroke-width="1.5"/></g></svg>